<svg xmlns="http://www.w3.org/2000/svg" xmlns:xlink="http://www.w3.org/1999/xlink" width="976" zoomAndPan="magnify" viewBox="0 0 732 234.749995" height="313" preserveAspectRatio="xMidYMid meet" version="1.0"><defs><filter x="0%" y="0%" width="100%" height="100%" id="8b973c43a3"><feColorMatrix values="0 0 0 0 1 0 0 0 0 1 0 0 0 0 1 0 0 0 1 0" color-interpolation-filters="sRGB"/></filter><clipPath id="7e82d65379"><path d="M 292.226562 0 L 438.933594 0 L 438.933594 117 L 292.226562 117 Z M 292.226562 0 " clip-rule="nonzero"/></clipPath><clipPath id="385bdbc163"><path d="M 409.488281 58.5 L 394.4375 58.5 L 433.871094 24.808594 C 444.585938 15.652344 436.996094 0 421.84375 0 L 326.917969 0 C 308.089844 0 292.683594 13.164062 292.683594 29.25 C 292.683594 45.402344 305.847656 58.5 322.085938 58.5 L 337.132812 58.5 L 297.699219 92.191406 C 286.988281 101.347656 294.574219 117 309.726562 117 L 404.652344 117 C 423.480469 117 438.886719 103.835938 438.886719 87.75 C 438.886719 71.59375 425.722656 58.5 409.488281 58.5 Z M 409.488281 58.5 " clip-rule="nonzero"/></clipPath><clipPath id="91cad89647"><path d="M 292.738281 117 L 438.941406 117 L 438.941406 234 L 292.738281 234 Z M 292.738281 117 " clip-rule="nonzero"/></clipPath><clipPath id="9edd7dab65"><path d="M 438.886719 117 L 585.089844 117 L 585.089844 234 L 438.886719 234 Z M 438.886719 117 " clip-rule="nonzero"/></clipPath><clipPath id="7158ad5e57"><path d="M 146.484375 0 L 292.683594 0 L 292.683594 117 L 146.484375 117 Z M 146.484375 0 " clip-rule="nonzero"/></clipPath><clipPath id="c82fc1b305"><path d="M 585.089844 117 L 731.609375 117 L 731.609375 232.078125 L 585.089844 232.078125 Z M 585.089844 117 " clip-rule="nonzero"/></clipPath><clipPath id="dfa6da21b8"><path d="M 731.289062 145.769531 C 731.289062 129.945312 718.304688 117 702.4375 117 L 613.941406 117 C 598.070312 117 585.089844 129.945312 585.089844 145.769531 C 585.089844 161.589844 598.070312 174.539062 613.941406 174.539062 C 598.070312 174.539062 585.089844 187.484375 585.089844 203.308594 C 585.089844 219.128906 598.070312 232.078125 613.941406 232.078125 L 702.4375 232.078125 C 718.304688 232.078125 731.289062 219.128906 731.289062 203.308594 C 731.289062 187.484375 718.304688 174.539062 702.4375 174.539062 C 718.304688 174.539062 731.289062 161.589844 731.289062 145.769531 Z M 731.289062 145.769531 " clip-rule="nonzero"/></clipPath><clipPath id="6924704383"><path d="M 0.390625 116.996094 L 146.589844 116.996094 L 146.589844 232.070312 L 0.390625 232.070312 Z M 0.390625 116.996094 " clip-rule="nonzero"/></clipPath><clipPath id="c2a00ea24a"><path d="M 0.386719 232.070312 C 0.386719 232.070312 93.632812 232.070312 93.632812 232.070312 C 122.796875 232.070312 146.445312 208.496094 146.582031 179.367188 L 146.589844 179.367188 L 146.589844 116.996094 L 31.574219 116.996094 C 14.421875 116.996094 0.386719 131.027344 0.386719 148.179688 C 0.386719 165.332031 14.421875 179.367188 31.574219 179.367188 L 48.222656 179.367188 C 21.378906 181.945312 0.386719 204.554688 0.386719 232.070312 Z M 0.386719 232.070312 " clip-rule="nonzero"/></clipPath><clipPath id="aace465a36"><path d="M 497 132 L 555.71875 132 L 555.71875 220.730469 L 497 220.730469 Z M 497 132 " clip-rule="nonzero"/></clipPath><clipPath id="cd6566fc74"><path d="M 468.0625 128.578125 L 549 128.578125 L 549 218 L 468.0625 218 Z M 468.0625 128.578125 " clip-rule="nonzero"/></clipPath><clipPath id="c0f5ba1b31"><path d="M 468.0625 148 L 504 148 L 504 218 L 468.0625 218 Z M 468.0625 148 " clip-rule="nonzero"/></clipPath><mask id="a582116989"><g filter="url(#8b973c43a3)"><rect x="-73.2" width="878.4" fill="#000000" y="-23.474999" height="281.699994" fill-opacity="0.4"/></g></mask><clipPath id="d550185e23"><path d="M 1 0.0664062 L 67.574219 0.0664062 L 67.574219 55.929688 L 1 55.929688 Z M 1 0.0664062 " clip-rule="nonzero"/></clipPath><clipPath id="89c508aee7"><rect x="0" width="68" y="0" height="56"/></clipPath><clipPath id="77165bebce"><path d="M 170.285156 86 L 269 86 L 269 94.691406 L 170.285156 94.691406 Z M 170.285156 86 " clip-rule="nonzero"/></clipPath><clipPath id="4b872e1195"><path d="M 170.285156 67 L 269 67 L 269 87 L 170.285156 87 Z M 170.285156 67 " clip-rule="nonzero"/></clipPath><clipPath id="e87b57cd99"><path d="M 178 22.015625 L 261 22.015625 L 261 75 L 178 75 Z M 178 22.015625 " clip-rule="nonzero"/></clipPath><clipPath id="0347caa379"><path d="M 370 129.519531 L 399 129.519531 L 399 158 L 370 158 Z M 370 129.519531 " clip-rule="nonzero"/></clipPath><clipPath id="6397e6c01d"><path d="M 331.511719 159 L 362 159 L 362 190 L 331.511719 190 Z M 331.511719 159 " clip-rule="nonzero"/></clipPath></defs><g clip-path="url(#7e82d65379)"><g clip-path="url(#385bdbc163)"><path fill="#5e17eb" d="M 292.683594 0 L 438.933594 0 L 438.933594 117 L 292.683594 117 Z M 292.683594 0 " fill-opacity="1" fill-rule="nonzero"/></g></g><g clip-path="url(#91cad89647)"><path fill="#5ce1e6" d="M 292.738281 117 L 438.988281 117 L 438.988281 234 L 292.738281 234 Z M 292.738281 117 " fill-opacity="1" fill-rule="nonzero"/></g><g clip-path="url(#9edd7dab65)"><path fill="#fc079b" d="M 438.886719 117 L 585.136719 117 L 585.136719 234 L 438.886719 234 Z M 438.886719 117 " fill-opacity="1" fill-rule="nonzero"/></g><g clip-path="url(#7158ad5e57)"><path fill="#ff78e5" d="M 146.484375 0 L 292.734375 0 L 292.734375 117 L 146.484375 117 Z M 146.484375 0 " fill-opacity="1" fill-rule="nonzero"/></g><g clip-path="url(#c82fc1b305)"><g clip-path="url(#dfa6da21b8)"><path fill="#5e17eb" d="M 585.089844 117 L 731.183594 117 L 731.183594 232.078125 L 585.089844 232.078125 Z M 585.089844 117 " fill-opacity="1" fill-rule="nonzero"/></g></g><g clip-path="url(#6924704383)"><g clip-path="url(#c2a00ea24a)"><path fill="#fc079b" d="M 146.589844 232.070312 L 0.496094 232.070312 L 0.496094 116.996094 L 146.589844 116.996094 Z M 146.589844 232.070312 " fill-opacity="1" fill-rule="nonzero"/></g></g><g clip-path="url(#aace465a36)"><path fill="#5ce1e6" d="M 514.714844 134.664062 C 518.769531 133.988281 522.824219 133.3125 526.878906 132.636719 C 536.566406 154.710938 546.25 176.785156 555.9375 198.863281 C 539.039062 206.070312 522.148438 213.277344 505.253906 220.484375 C 502.773438 219.582031 500.296875 218.683594 497.820312 217.78125 C 503.449219 190.074219 509.082031 162.367188 514.714844 134.664062 Z M 514.714844 134.664062 " fill-opacity="1" fill-rule="nonzero"/></g><g clip-path="url(#cd6566fc74)"><path fill="#5ce1e6" d="M 468.085938 150.878906 L 518.769531 128.578125 L 548.5 195.480469 L 497.820312 217.78125 Z M 468.085938 150.878906 " fill-opacity="1" fill-rule="nonzero"/></g><g clip-path="url(#c0f5ba1b31)"><path fill="#5ce1e6" d="M 468.085938 150.878906 L 473.539062 148.480469 L 503.632812 215.148438 L 497.820312 217.78125 Z M 468.085938 150.878906 " fill-opacity="1" fill-rule="nonzero"/></g><g mask="url(#a582116989)"><g transform="matrix(1, 0, 0, 1, 472, 162)"><g clip-path="url(#89c508aee7)"><g clip-path="url(#d550185e23)"><path fill="#5e17eb" d="M 1.171875 0.320312 L 25.820312 55.78125 L 67.335938 37.511719 C 34.476562 29.902344 13.207031 13.0625 1.171875 0.320312 Z M 1.171875 0.320312 " fill-opacity="1" fill-rule="nonzero"/></g></g></g></g><path fill="#e9eaea" d="M 499.925781 216.855469 L 505.253906 218.890625 L 553.910156 198.183594 L 525.578125 132.851562 L 519.515625 130.265625 C 529.175781 152.003906 538.839844 173.742188 548.5 195.480469 C 532.308594 202.601562 516.117188 209.730469 499.925781 216.855469 Z M 499.925781 216.855469 " fill-opacity="1" fill-rule="nonzero"/><g clip-path="url(#77165bebce)"><path fill="#fc079b" d="M 170.300781 86.75 L 170.300781 90.847656 C 170.300781 93.128906 172.125 94.980469 174.375 94.980469 L 264.820312 94.980469 C 267.070312 94.980469 268.894531 93.128906 268.894531 90.847656 L 268.894531 86.75 Z M 170.300781 86.75 " fill-opacity="1" fill-rule="nonzero"/></g><g clip-path="url(#4b872e1195)"><path fill="#fc079b" d="M 185.8125 67.730469 L 253.996094 67.730469 L 268.894531 86.75 L 170.300781 86.75 Z M 185.8125 67.730469 " fill-opacity="1" fill-rule="nonzero"/></g><g clip-path="url(#e87b57cd99)"><path fill="#fc079b" d="M 260.339844 70.652344 C 260.339844 72.875 258.539062 74.675781 256.316406 74.675781 L 182.878906 74.675781 C 180.660156 74.675781 178.855469 72.875 178.855469 70.652344 L 178.855469 26.042969 C 178.855469 23.820312 180.660156 22.019531 182.878906 22.019531 L 256.316406 22.019531 C 258.539062 22.019531 260.339844 23.820312 260.339844 26.042969 Z M 260.339844 70.652344 " fill-opacity="1" fill-rule="nonzero"/></g><path fill="#ffffff" d="M 257.734375 68.328125 C 257.734375 70.332031 256.046875 71.953125 253.96875 71.953125 L 185.230469 71.953125 C 183.148438 71.953125 181.460938 70.332031 181.460938 68.328125 L 181.460938 31.929688 C 181.460938 29.925781 183.148438 28.304688 185.230469 28.304688 L 253.96875 28.304688 C 256.046875 28.304688 257.734375 29.925781 257.734375 31.929688 Z M 257.734375 68.328125 " fill-opacity="1" fill-rule="nonzero"/><path fill="#ffffff" d="M 221.734375 25.339844 C 221.734375 25.625 221.679688 25.898438 221.574219 26.160156 C 221.464844 26.421875 221.308594 26.652344 221.109375 26.851562 C 220.910156 27.054688 220.675781 27.207031 220.414062 27.316406 C 220.152344 27.425781 219.882812 27.480469 219.597656 27.480469 C 219.316406 27.480469 219.042969 27.425781 218.78125 27.316406 C 218.519531 27.207031 218.289062 27.054688 218.085938 26.851562 C 217.886719 26.652344 217.730469 26.421875 217.625 26.160156 C 217.515625 25.898438 217.460938 25.625 217.460938 25.339844 C 217.460938 25.058594 217.515625 24.785156 217.625 24.523438 C 217.730469 24.261719 217.886719 24.03125 218.085938 23.832031 C 218.289062 23.628906 218.519531 23.476562 218.78125 23.367188 C 219.042969 23.257812 219.316406 23.203125 219.597656 23.203125 C 219.882812 23.203125 220.152344 23.257812 220.414062 23.367188 C 220.675781 23.476562 220.910156 23.628906 221.109375 23.832031 C 221.308594 24.03125 221.464844 24.261719 221.574219 24.523438 C 221.679688 24.785156 221.734375 25.058594 221.734375 25.339844 Z M 221.734375 25.339844 " fill-opacity="1" fill-rule="nonzero"/><path stroke-linecap="round" transform="matrix(0.386469, 0, 0, 0.386469, 137.434819, -23.663641)" fill="none" stroke-linejoin="miter" d="M 123.814314 260.500789 L 299.665465 260.500789 " stroke="#ffffff" stroke-width="7.984" stroke-opacity="1" stroke-miterlimit="10"/><path stroke-linecap="round" transform="matrix(0.386469, 0, 0, 0.386469, 137.434819, -23.663641)" fill="none" stroke-linejoin="miter" d="M 113.363107 274.489638 L 307.650429 274.489638 " stroke="#ffffff" stroke-width="7.984" stroke-opacity="1" stroke-miterlimit="10"/><path fill="#393536" d="M 348.988281 177.683594 C 348.242188 178.320312 346.980469 178.066406 346.167969 177.113281 C 345.351562 176.164062 345.296875 174.875 346.039062 174.238281 L 386.203125 139.867188 C 386.945312 139.230469 388.210938 139.484375 389.023438 140.4375 C 389.839844 141.390625 389.894531 142.675781 389.152344 143.3125 L 348.988281 177.683594 " fill-opacity="1" fill-rule="nonzero"/><g clip-path="url(#0347caa379)"><path fill="#fc079b" d="M 398.648438 143.367188 C 398.648438 151.003906 392.457031 157.199219 384.820312 157.199219 C 377.183594 157.199219 370.988281 151.003906 370.988281 143.367188 C 370.988281 135.730469 377.183594 129.535156 384.820312 129.535156 C 392.457031 129.535156 398.648438 135.730469 398.648438 143.367188 " fill-opacity="1" fill-rule="nonzero"/></g><path fill="#393536" d="M 343.128906 179.308594 C 342.335938 178.734375 342.292969 177.449219 343.027344 176.433594 C 343.765625 175.421875 345.003906 175.070312 345.796875 175.644531 L 388.539062 206.746094 C 389.332031 207.324219 389.375 208.613281 388.640625 209.621094 C 387.902344 210.636719 386.664062 210.988281 385.871094 210.414062 L 343.128906 179.308594 " fill-opacity="1" fill-rule="nonzero"/><path fill="#fc079b" d="M 388.023438 219.664062 C 380.589844 221.433594 373.132812 216.847656 371.363281 209.417969 C 369.59375 201.988281 374.179688 194.53125 381.609375 192.757812 C 389.039062 190.988281 396.496094 195.574219 398.269531 203.003906 C 400.039062 210.4375 395.453125 217.894531 388.023438 219.664062 " fill-opacity="1" fill-rule="nonzero"/><g clip-path="url(#6397e6c01d)"><path fill="#ff78e5" d="M 361.429688 174.792969 C 361.429688 183.054688 354.730469 189.753906 346.464844 189.753906 C 338.199219 189.753906 331.5 183.054688 331.5 174.792969 C 331.5 166.527344 338.199219 159.828125 346.464844 159.828125 C 354.730469 159.828125 361.429688 166.527344 361.429688 174.792969 " fill-opacity="1" fill-rule="nonzero"/></g></svg>